<svg width="13839" height="13406" xmlns="http://www.w3.org/2000/svg">

 <g>
  <title>background</title>
  <rect fill="none" id="canvas_background" height="402" width="582" y="-1" x="-1"/>
 </g>
 <g>
  <title>Layer 1</title>
  <path fill-rule="nonzero" fill="#0069e0" id="svg_1" d="m8142,5600c442,130 825,402 1095,763c264,352 421,789 421,1260l0,1892l0,216l-216,0l-5045,0l-216,0l0,-216l0,-1892c0,-470 157,-907 421,-1260c270,-360 653,-633 1095,-763l121,-35l91,88c133,129 291,233 466,304c168,68 352,106 545,106c194,0 378,-38 545,-106c175,-71 333,-175 466,-304l90,-88l121,35zm2067,5428c-119,0 -216,-97 -216,-216c0,-119 97,-216 216,-216l1730,0l216,0l0,216l0,1730c0,119 -97,216 -216,216c-119,0 -216,-97 -216,-216l0,-1164c-554,570 -1210,1041 -1938,1386c-870,412 -1842,643 -2866,643c-1024,0 -1996,-231 -2866,-643c-903,-428 -1696,-1052 -2321,-1815c-76,-92 -62,-229 30,-304c92,-76 229,-62 304,30c586,716 1327,1299 2171,1699c812,385 1722,600 2682,600c960,0 1870,-216 2682,-600c700,-332 1330,-790 1859,-1346l-1251,0zm-6533,-8649c119,0 216,97 216,216c0,119 -97,216 -216,216l-1730,0l-41,0l-5,0l-5,0l-165,0l0,-82c-61,-77 -64,-189 0,-269l0,-1596c0,-119 97,-216 216,-216c119,0 216,97 216,216l0,1116c544,-548 1184,-1003 1891,-1338c870,-412 1842,-643 2866,-643c1024,0 1996,231 2866,643c903,428 1696,1052 2321,1816c76,92 62,229 -30,304c-92,76 -229,62 -304,-30c-586,-716 -1327,-1299 -2171,-1699c-812,-385 -1722,-600 -2682,-600c-960,0 -1870,216 -2682,600c-700,332 -1330,790 -1858,1346l1297,0zm8464,3106c264,0 503,107 676,280l1,1c173,173 280,412 280,676c0,264 -107,504 -280,677c22,-1 44,2 66,9c278,82 520,254 690,480c167,222 266,497 266,794l0,1112l0,216l-216,0l-2966,0l-216,0l0,-216l0,-1112c0,-296 99,-572 266,-794c170,-227 412,-399 690,-480c22,-7 45,-9 67,-9l-1,-1c-173,-174 -281,-413 -281,-676c0,-265 108,-504 281,-677c173,-173 413,-280 677,-280zm476,1789c-140,80 -303,127 -476,127c-173,0 -336,-46 -477,-128l0,1c33,114 -32,234 -146,268c-188,55 -351,172 -466,325c-111,149 -178,334 -178,535l0,896l205,0l-2,-418c0,-119 96,-216 215,-216c119,0 216,96 216,215l2,420l1264,0l-2,-418c0,-119 96,-216 215,-216c119,0 216,96 216,215l2,420l203,0l0,-896c0,-201 -67,-387 -178,-535c-115,-153 -279,-270 -466,-325c-114,-33 -180,-153 -146,-268l0,0l-1,-2zm-104,-1203c-95,-94 -227,-153 -372,-153c-145,0 -277,59 -371,154c-95,95 -154,227 -154,371c0,146 59,277 153,371l1,1c94,94 226,153 371,153c145,0 276,-59 371,-154c95,-95 154,-226 154,-371c0,-145 -59,-277 -153,-372zm-10812,-586c264,0 503,107 676,280l1,1c173,173 280,412 280,676c0,264 -107,504 -280,677c22,-1 44,2 66,9c278,82 520,254 690,480c167,222 266,497 266,794l0,1112l0,216l-216,0l-2966,0l-216,0l0,-216l0,-1112c0,-296 99,-572 266,-794c170,-227 412,-399 690,-480c22,-7 45,-9 67,-9l-1,-1c-173,-174 -281,-413 -281,-676c0,-265 108,-504 281,-677c173,-173 413,-280 677,-280zm476,1789c-140,80 -303,127 -476,127c-173,0 -336,-46 -477,-128l0,1c33,114 -32,234 -146,268c-188,55 -351,172 -466,325c-111,149 -178,334 -178,535l0,896l205,0l-2,-418c0,-119 96,-216 215,-216c119,0 216,96 216,215l2,420l1264,0l-2,-418c0,-119 96,-216 215,-216c119,0 216,96 216,215l2,420l203,0l0,-896c0,-201 -67,-387 -178,-535c-115,-153 -279,-270 -466,-325c-114,-33 -180,-153 -146,-268l0,0l-1,-2zm-104,-1203c-95,-94 -227,-153 -372,-153c-145,0 -277,59 -371,154c-95,95 -154,227 -154,371c0,146 59,277 153,371l1,1c94,94 226,153 371,153c145,0 276,-59 371,-154c95,-95 154,-226 154,-371c0,-145 -59,-277 -153,-372zm4848,-3259c407,0 777,166 1044,433l1,1c267,267 433,637 433,1044c0,408 -166,778 -433,1045c-267,267 -637,433 -1045,433c-407,0 -776,-165 -1044,-433l-1,-1c-267,-268 -433,-637 -433,-1044c0,-408 166,-778 433,-1045c267,-267 637,-433 1045,-433zm740,738c-189,-188 -451,-305 -740,-305c-289,0 -550,117 -739,306c-189,189 -306,450 -306,739c0,289 117,551 305,739l1,1c188,188 450,305 739,305c289,0 550,-117 739,-306c189,-189 306,-450 306,-739c0,-289 -117,-551 -305,-740zm488,5749l-5,-864c0,-119 96,-216 215,-216c119,0 216,96 216,215l5,865l648,0l0,-1676c0,-375 -124,-722 -334,-1001c-192,-256 -456,-456 -760,-570c-150,127 -321,231 -505,305c-219,89 -458,138 -707,138c-250,0 -489,-49 -707,-138c-184,-75 -355,-179 -505,-305c-304,114 -568,314 -760,570c-209,279 -334,626 -334,1001l0,1676l651,0l-5,-864c0,-119 96,-216 215,-216c119,0 216,96 216,215l5,865l2452,0l-1,0z" class="fil0"/>
 </g>
</svg>