<svg width="8643" height="12572" xmlns="http://www.w3.org/2000/svg">

 <g>
  <title>background</title>
  <rect fill="none" id="canvas_background" height="402" width="582" y="-1" x="-1"/>
 </g>
 <g>
  <title>Layer 1</title>
  <path fill-rule="nonzero" fill="#0069e0" id="svg_1" d="m8643,4322l0,8054l0,197l-197,0l-8250,0l-197,0l0,-197l0,-10411l0,-197l197,0l785,0l0,-982c0,-202 89,-406 236,-554c139,-140 329,-232 546,-232l397,0c239,0 427,89 561,224c153,154 231,366 231,571l0,974l387,0l0,-776l393,0l0,776l2352,0l5,0c54,0 103,22 139,58l2357,2357c38,38 57,89 57,139l0,0l1,-1zm-6680,-3338l0,786l595,0l0,-974c0,-107 -39,-217 -116,-294c-64,-64 -158,-107 -283,-107l-397,0c-105,0 -199,46 -268,115c-75,76 -121,178 -121,277l0,982l196,0l0,-786l393,0l1,1zm1768,1179l0,1179c0,261 -68,510 -204,691c-134,179 -329,291 -582,291l-1182,0c-264,0 -456,-109 -587,-284c-136,-182 -195,-433 -195,-698l0,-1179l-589,0l0,10018l7857,0l0,-7661l-2161,0c-108,0 -197,-88 -197,-197l0,-5l0,-2156l-2160,0l0,1zm-2357,0l0,1179c0,186 36,355 117,464c58,77 146,126 272,126l1182,0c118,0 207,-52 269,-133c83,-110 124,-275 124,-456l0,-1179l-1964,0l0,-1zm-197,6878l4217,0l0,393l-4217,0l0,-393zm0,-786l6286,0l0,393l-6286,0l0,-393zm0,-786l6286,0l0,393l-6286,0l0,-393zm0,-786l6286,0l0,393l-6286,0l0,-393zm6793,-2557l-1686,-1686l0,1686l1686,0z" class="fil0"/>
 </g>
</svg>