<svg width="16788" height="14164.000000000002" xmlns="http://www.w3.org/2000/svg">

 <g>
  <title>background</title>
  <rect fill="none" id="canvas_background" height="402" width="582" y="-1" x="-1"/>
 </g>
 <g>
  <title>Layer 1</title>
  <path fill-rule="nonzero" fill="#a6212c" id="svg_1" d="m262,0l7,0l16256,0c145,0 262,118 262,262l0,7l0,2085l0,7l0,7l0,11535c0,145 -118,262 -262,262l-7,0l-5758,0l-7,0l-7,0l-1042,0l-7,0l-2609,0l-2112,0l-4714,0c-145,0 -262,-118 -262,-262l0,-7l0,-11528l0,-7l0,-7l0,-2091c0,-145 118,-262 262,-262l0,-1zm10749,3447c320,148 591,385 780,677c190,292 301,641 301,1014c0,401 -128,774 -345,1079c-186,261 -438,472 -732,609l0,6816l5247,0l0,-11017l-15738,0l0,11017l4196,0l0,-2623c0,-289 118,-552 308,-741c190,-190 452,-308 741,-308l0,-3410c-98,0 -183,-55 -228,-135l-491,-774c-45,-70 -51,-154 -26,-227l502,-1819c32,-116 137,-192 252,-192l0,-1l507,0c129,0 237,94 258,217l500,1812c20,74 7,150 -32,211l0,0l-507,787c-48,75 -128,117 -211,120l0,3411c287,0 550,118 740,308l1,1l1,-1c190,190 308,452 308,741l0,2623l2098,0l0,-6815c-294,-137 -546,-349 -732,-610c-217,-305 -345,-678 -345,-1079c0,-373 111,-722 301,-1014c195,-300 476,-542 806,-689c132,-59 287,0 345,132c15,35 23,71 23,107l1,0l0,1502l776,0l0,-1502c0,-145 118,-262 262,-262c48,0 93,13 132,36l1,-1zm342,962c-60,-93 -131,-177 -211,-252l0,1275l0,7c0,145 -118,262 -262,262l-1294,0l-7,0c-145,0 -262,-118 -262,-262l0,-1281c-81,75 -152,160 -212,252c-135,208 -214,459 -214,729c0,290 91,558 246,776c156,219 376,390 633,483c114,29 198,132 198,254l0,6990l524,0l0,-6991l1,0c0,-108 68,-210 176,-247c265,-92 493,-265 653,-490c155,-218 246,-486 246,-776c0,-270 -79,-520 -214,-729l-1,0zm-5266,-473l-109,0l-422,1531l360,568l111,0l7,0l7,0l104,0l366,-568l-422,-1530l-2,-1zm208,6558l-255,0l-7,0l-7,0l-256,0c-144,0 -275,59 -370,154c-95,95 -154,226 -154,370l0,2623l1573,0l0,-2623c0,-144 -59,-275 -154,-370l1,-1c-95,-94 -227,-154 -371,-154l0,1zm5509,262c-145,0 -262,-118 -262,-262c0,-145 118,-262 262,-262l2602,0c145,0 262,118 262,262c0,145 -118,262 -262,262l-2602,0zm1049,-1311c-145,0 -262,-118 -262,-262c0,-145 118,-262 262,-262l2602,0c145,0 262,118 262,262c0,145 -118,262 -262,262l-2602,0zm-11541,-2361c-145,0 -262,-118 -262,-262c0,-145 118,-262 262,-262l2602,0c145,0 262,118 262,262c0,145 -118,262 -262,262l-2602,0zm1049,1311c-145,0 -262,-118 -262,-262c0,-145 118,-262 262,-262l2602,0c145,0 262,118 262,262c0,145 -118,262 -262,262l-2602,0zm1574,-7344l524,0l0,525l-524,0l0,-525zm-1311,0l524,0l0,525l-524,0l0,-525zm-1311,0l524,0l0,525l-524,0l0,-525zm-787,1049l15738,0l0,-1573l-15738,0l0,1573z" class="fil0"/>
 </g>
</svg>