<?xml version="1.0" encoding="UTF-8"?>
<!DOCTYPE svg PUBLIC "-//W3C//DTD SVG 1.0//EN" "http://www.w3.org/TR/2001/REC-SVG-20010904/DTD/svg10.dtd">

<!-- =========================== -->
<!-- =========================== -->
<!-- ==== Markdown workflow ==== -->
<!-- *************************** -->
<!-- Auteur  : Raphaël Grolimund -->
<!-- Date    : 2018-10-11        -->
<!-- Contact : grolimur@nous4.ch -->
<!-- Licence : CC BY 4.0         -->
<!-- =========================== -->
<!-- =========================== -->

<svg xmlns:svg="http://www.w3.org/2000/svg"  xmlns="http://www.w3.org/2000/svg" xmlns:xlink="http://www.w3.org/1999/xlink" version="1.0" width="640" height="1160" viewBox="0 400 1600 2900">

<defs>
<marker id="arrow" markerWidth="10" markerHeight="10" refX="0" refY="3" orient="auto" markerUnits="strokeWidth">
<path d="M0,0 L0,6 L9,3 z" fill="#000" />
</marker>
</defs>


<!-- MD file -->
<svg xmlns:svg="http://www.w3.org/2000/svg"  xmlns="http://www.w3.org/2000/svg" xmlns:xlink="http://www.w3.org/1999/xlink" version="1.0" x="200" y="600" width="333.33" height="400" viewBox="0 0 5000 6000">
<path d="M 1100 1000 H 3000 M 4000 2000 V 4900 A 100 100 90 0 1 3900 5000 H 1100 A 100 100 90 0 1 1000 4900 V 1100 A 100 100 90 0 1 1100 1000 H 3000Z" style="stroke: black; stroke-width: 20; fill: white;" />
<path d="M 4000 2000 H 3100 A 100 100 90 0 1 3000 1900 V 1000 M 4000 2000 Z" style="stroke: black; stroke-width: 20; fill: white;" />
<text x="2500" y="4500" style="font-size: 900px; font-family:sans-serif; font-weight:bold; text-anchor:middle;">MD</text>
</svg>

<!-- BIB file -->
<svg xmlns:svg="http://www.w3.org/2000/svg"  xmlns="http://www.w3.org/2000/svg" xmlns:xlink="http://www.w3.org/1999/xlink" version="1.0" x="600" y="600" width="333.33" height="400" viewBox="0 0 5000 6000">
<path d="M 1100 1000 H 3000 M 4000 2000 V 4900 A 100 100 90 0 1 3900 5000 H 1100 A 100 100 90 0 1 1000 4900 V 1100 A 100 100 90 0 1 1100 1000 H 3000Z" style="stroke:#999999; stroke-width:20; fill:white;" />
<path d="M 4000 2000 H 3100 A 100 100 90 0 1 3000 1900 V 1000 M 4000 2000 Z" style="stroke:#999999; stroke-width:20; fill:white;" />
<text x="2500" y="4500" style="font-size: 900px; font-family:sans-serif; font-weight:bold; text-anchor:middle;">BIB</text>
</svg>

<!-- CSL file -->
<svg xmlns:svg="http://www.w3.org/2000/svg"  xmlns="http://www.w3.org/2000/svg" xmlns:xlink="http://www.w3.org/1999/xlink" version="1.0" x="1000" y="600" width="333.33" height="400" viewBox="0 0 5000 6000">
<path d="M 1100 1000 H 3000 M 4000 2000 V 4900 A 100 100 90 0 1 3900 5000 H 1100 A 100 100 90 0 1 1000 4900 V 1100 A 100 100 90 0 1 1100 1000 H 3000Z" style="stroke: black; stroke-width: 20; fill: white;" />
<path d="M 4000 2000 H 3100 A 100 100 90 0 1 3000 1900 V 1000 M 4000 2000 Z" style="stroke: black; stroke-width: 20; fill: white;" />
<text x="2500" y="4500" style="font-size: 900px; font-family:sans-serif; font-weight:bold; text-anchor:middle;">CSL</text>
</svg>


<!-- arrows -->
<path d="M365 1000 V1100 A50 50 90 0 0 415 1150 H500" fill="none" stroke="#000" stroke-width="3" />
<line x1="765" y1="1000" x2="765" y2="1200" stroke="#000" stroke-width="3" marker-end="url(#arrow)" />
<path d="M1165 1000 V1100 A50 50 90 0 1 1115 1150 H500" fill="none" stroke="#000" stroke-width="3" />
<line x1="765" y1="2050" x2="765" y2="2250" stroke="#000" stroke-width="3" marker-end="url(#arrow)" />
<!-- /arrows -->


<!-- pandoc command -->
<text x="765" y="1350" style="font-size: 100px; font-family:sans-serif; font-weight:bold; text-anchor:middle;">Pandoc</text>
<path d="M250 1400 A50 50 90 0 0 200 1450 V1950 A50 50 90 0 0 250 2000 H1310 A50 50 90 0 0 1360 1950 V1450 A50 50 90 0 0 1310 1400Z" style="stroke: black; fill: black;" />
<text x="300" y="1780" style="font-size: 30px; font-family:serif; fill:white;">pandoc article.md --latex-engine=xelatex --filter pandoc-citeproc</text>
<text x="300" y="1850" style="font-size: 30px; font-family:serif; fill:white;">--bibliography biblio.bib --csl iso-690.csl -S -o article.pdf</text>
<text x="300" y="1950" style="font-size: 30px; font-family:serif; fill:white;">[commande de la version 1 de Pandoc]</text>

<!-- output file -->
<svg xmlns:svg="http://www.w3.org/2000/svg"  xmlns="http://www.w3.org/2000/svg" xmlns:xlink="http://www.w3.org/1999/xlink" version="1.0" x="610" y="2300" width="333.33" height="400" viewBox="0 0 5000 6000">
<path d="M 1100 1000 H 3000 M 4000 2000 V 4900 A 100 100 90 0 1 3900 5000 H 1100 A 100 100 90 0 1 1000 4900 V 1100 A 100 100 90 0 1 1100 1000 H 3000Z" style="stroke: black; stroke-width: 20; fill: white;" />
<path d="M 4000 2000 H 3100 A 100 100 90 0 1 3000 1900 V 1000 M 4000 2000 Z" style="stroke: black; stroke-width: 20; fill: white;" />
<text x="2500" y="3200" style="font-size: 600px; font-family:sans-serif; font-weight:bold; text-anchor:middle;">LaTeX</text>
<text x="2500" y="3600" style="font-size: 360px; font-family:sans-serif; font-weight:bold; text-anchor:middle;">compliant</text>
<text x="2500" y="4500" style="font-size: 900px; font-family:sans-serif; font-weight:bold; text-anchor:middle;">PDF</text>
</svg>


<!-- processing -->
<!-- icon source: CC BY 3.0 Gears  By TS Graphics, US https://thenounproject.com/term/gears/633328/ -->
<svg xmlns="http://www.w3.org/2000/svg" xmlns:xlink="http://www.w3.org/1999/xlink" x="630" y="1420"  version="1.1" width="240" height="300" viewBox="0 0 84 105" xml:space="preserve" fill-rule="evenodd" clip-rule="evenodd" stroke-linejoin="round" stroke-miterlimit="1.41421">
<g transform="matrix(1.13196,0.399258,-0.399258,1.13196,7.08034,-24.6139)">
<path d="M47.864,17.31C47.928,17.317 47.946,17.314 48.008,17.338C48.03,17.346 48.052,17.359 48.074,17.37C48.219,17.458 48.219,17.457 48.363,17.547C48.748,17.789 49.125,18.043 49.491,18.314C50.221,18.855 50.907,19.455 51.541,20.106C51.7,20.269 51.855,20.435 52.007,20.604C52.045,20.646 52.083,20.689 52.121,20.731C52.149,20.763 52.241,20.863 52.275,20.918C52.325,21.003 52.345,21.104 52.328,21.202C52.324,21.226 52.318,21.25 52.31,21.273C52.287,21.335 52.274,21.347 52.237,21.4L50.312,23.693C50.397,23.806 50.48,23.919 50.561,24.034C50.634,24.138 50.706,24.242 50.777,24.348C51.011,24.701 51.231,25.063 51.432,25.435C51.634,25.808 51.816,26.19 51.984,26.579L52,26.616L54.948,26.097L55.021,26.09C55.086,26.096 55.104,26.093 55.166,26.116C55.258,26.151 55.337,26.218 55.385,26.305C55.396,26.326 55.404,26.349 55.414,26.372C55.47,26.532 55.469,26.532 55.523,26.693C55.662,27.127 55.787,27.563 55.893,28.006C56.104,28.89 56.245,29.79 56.312,30.696C56.329,30.923 56.341,31.15 56.349,31.378C56.351,31.434 56.352,31.491 56.354,31.548C56.355,31.591 56.362,31.726 56.352,31.79C56.336,31.888 56.286,31.978 56.21,32.042C56.192,32.058 56.172,32.072 56.15,32.085C56.094,32.118 56.076,32.118 56.013,32.135L53.065,32.655C53.058,32.795 53.048,32.936 53.037,33.076C53.026,33.202 53.014,33.329 53,33.455C52.952,33.876 52.888,34.294 52.803,34.709C52.718,35.124 52.612,35.534 52.49,35.94L52.478,35.979L55.071,37.476L55.131,37.518C55.177,37.564 55.193,37.573 55.225,37.631C55.274,37.716 55.291,37.819 55.272,37.915C55.267,37.94 55.258,37.963 55.251,37.986C55.19,38.145 55.19,38.144 55.128,38.302C54.956,38.723 54.771,39.139 54.568,39.546C54.162,40.358 53.69,41.138 53.159,41.876C53.026,42.06 52.89,42.242 52.75,42.421C52.714,42.466 52.679,42.511 52.644,42.555C52.617,42.589 52.535,42.697 52.487,42.74C52.412,42.804 52.315,42.841 52.217,42.842C52.192,42.842 52.167,42.84 52.143,42.836C52.078,42.824 52.064,42.813 52.005,42.786L49.413,41.289C49.317,41.392 49.219,41.493 49.121,41.593C49.031,41.683 48.94,41.772 48.849,41.861C48.542,42.152 48.224,42.431 47.892,42.694C47.56,42.958 47.215,43.203 46.861,43.436L46.827,43.458L47.851,46.272L47.87,46.343C47.872,46.367 47.876,46.391 47.876,46.416C47.876,46.515 47.839,46.612 47.775,46.686C47.732,46.736 47.715,46.742 47.661,46.779C47.512,46.861 47.513,46.861 47.363,46.941C46.961,47.153 46.552,47.353 46.135,47.534C45.301,47.895 44.439,48.19 43.558,48.413C43.338,48.469 43.116,48.521 42.894,48.568C42.838,48.58 42.782,48.591 42.726,48.603C42.685,48.611 42.552,48.642 42.488,48.643C42.389,48.644 42.291,48.61 42.215,48.547C42.196,48.532 42.179,48.514 42.163,48.495C42.12,48.445 42.117,48.428 42.089,48.369L41.065,45.556C40.926,45.573 40.786,45.587 40.646,45.601C40.519,45.612 40.393,45.622 40.266,45.631C39.843,45.657 39.42,45.666 38.997,45.655C38.573,45.643 38.151,45.61 37.73,45.561L37.69,45.556L36.666,48.369L36.635,48.435C36.598,48.488 36.591,48.505 36.54,48.547C36.464,48.61 36.367,48.644 36.268,48.643C36.243,48.642 36.219,48.638 36.195,48.635C36.028,48.602 36.028,48.602 35.862,48.568C35.417,48.472 34.976,48.362 34.54,48.232C33.669,47.974 32.819,47.645 32.001,47.25C31.796,47.151 31.593,47.048 31.392,46.941C31.342,46.914 31.292,46.887 31.242,46.86C31.205,46.84 31.084,46.778 31.033,46.737C30.957,46.675 30.904,46.586 30.886,46.489C30.882,46.465 30.879,46.441 30.879,46.416C30.879,46.35 30.888,46.334 30.904,46.272L31.928,43.458C31.81,43.382 31.694,43.303 31.578,43.224C31.474,43.151 31.37,43.077 31.267,43.002C30.927,42.75 30.597,42.486 30.28,42.205C29.963,41.923 29.661,41.627 29.37,41.319L29.343,41.289L26.75,42.786L26.683,42.817C26.621,42.833 26.605,42.842 26.539,42.842C26.44,42.841 26.343,42.804 26.269,42.74C26.25,42.724 26.235,42.704 26.218,42.687C26.111,42.554 26.111,42.555 26.006,42.421C25.727,42.062 25.46,41.694 25.209,41.315C24.708,40.557 24.269,39.758 23.895,38.93C23.802,38.723 23.713,38.513 23.628,38.302C23.606,38.25 23.585,38.197 23.565,38.144C23.549,38.104 23.496,37.979 23.484,37.915C23.465,37.819 23.482,37.716 23.53,37.631C23.543,37.609 23.557,37.589 23.572,37.57C23.614,37.519 23.631,37.513 23.684,37.476L26.277,35.979C26.235,35.844 26.197,35.709 26.159,35.574C26.126,35.451 26.094,35.328 26.064,35.205C25.965,34.793 25.882,34.378 25.82,33.959C25.758,33.54 25.718,33.118 25.693,32.695L25.691,32.655L22.743,32.135L22.672,32.116C22.649,32.105 22.626,32.097 22.605,32.085C22.52,32.035 22.454,31.955 22.422,31.862C22.4,31.799 22.403,31.782 22.399,31.717C22.402,31.547 22.402,31.547 22.407,31.378C22.424,30.923 22.456,30.47 22.508,30.018C22.611,29.115 22.788,28.221 23.034,27.346C23.096,27.127 23.162,26.91 23.233,26.693C23.25,26.639 23.268,26.585 23.286,26.531C23.3,26.491 23.34,26.361 23.371,26.305C23.419,26.218 23.497,26.151 23.59,26.116C23.613,26.108 23.637,26.101 23.661,26.097C23.726,26.085 23.743,26.091 23.807,26.097L26.756,26.616C26.81,26.487 26.868,26.358 26.926,26.23C26.979,26.115 27.034,26.001 27.09,25.886C27.279,25.508 27.482,25.136 27.704,24.776C27.926,24.415 28.166,24.066 28.419,23.726L28.443,23.693L26.519,21.4L26.477,21.34C26.45,21.281 26.438,21.267 26.427,21.202C26.411,21.104 26.43,21.003 26.481,20.918C26.493,20.897 26.51,20.878 26.524,20.859C26.636,20.731 26.636,20.731 26.748,20.604C27.054,20.267 27.37,19.94 27.7,19.627C28.36,19.002 29.069,18.431 29.82,17.919C30.008,17.791 30.199,17.667 30.392,17.547C30.44,17.516 30.489,17.487 30.537,17.457C30.574,17.435 30.688,17.361 30.748,17.338C30.84,17.302 30.944,17.301 31.037,17.334C31.06,17.342 31.082,17.353 31.104,17.365C31.161,17.397 31.17,17.413 31.216,17.459L33.14,19.752C33.265,19.688 33.392,19.627 33.519,19.566C33.634,19.512 33.75,19.459 33.866,19.408C34.254,19.239 34.648,19.085 35.05,18.952C35.452,18.818 35.86,18.705 36.272,18.607L36.312,18.598L36.312,15.604L36.318,15.531C36.336,15.468 36.336,15.45 36.369,15.393C36.419,15.308 36.499,15.243 36.593,15.21C36.616,15.202 36.64,15.198 36.664,15.193C36.832,15.166 36.831,15.166 37,15.142C37.45,15.08 37.902,15.032 38.356,15.005C39.263,14.95 40.175,14.969 41.079,15.06C41.305,15.082 41.531,15.11 41.756,15.142C41.812,15.15 41.869,15.158 41.925,15.166C41.967,15.173 42.102,15.189 42.163,15.21C42.256,15.243 42.336,15.308 42.386,15.393C42.399,15.414 42.409,15.437 42.418,15.46C42.441,15.521 42.438,15.539 42.444,15.604L42.444,18.598C42.581,18.629 42.717,18.663 42.853,18.698C42.976,18.731 43.098,18.765 43.221,18.8C43.626,18.921 44.027,19.056 44.421,19.212C44.815,19.368 45.2,19.544 45.579,19.734L45.615,19.752L47.539,17.459L47.592,17.407C47.645,17.37 47.657,17.356 47.719,17.334C47.742,17.326 47.766,17.322 47.79,17.316C47.815,17.314 47.839,17.312 47.864,17.31ZM37.145,18.934C37.14,18.996 37.142,19.013 37.121,19.073C37.089,19.163 37.026,19.24 36.945,19.289C36.891,19.322 36.874,19.323 36.813,19.341C36.696,19.366 36.578,19.391 36.461,19.418C35.88,19.556 35.309,19.729 34.752,19.943C34.231,20.144 33.726,20.38 33.234,20.644L33.169,20.672C33.146,20.678 33.123,20.685 33.1,20.689C33.006,20.703 32.908,20.685 32.826,20.636C32.771,20.604 32.762,20.589 32.718,20.545L30.808,18.269C30.176,18.667 29.571,19.105 28.998,19.585C28.426,20.066 27.89,20.586 27.388,21.139L29.297,23.415C29.333,23.467 29.346,23.478 29.369,23.537C29.402,23.627 29.403,23.726 29.373,23.816C29.353,23.877 29.34,23.888 29.305,23.941C29.231,24.035 29.158,24.13 29.085,24.226C28.729,24.705 28.402,25.204 28.113,25.727C27.843,26.215 27.608,26.721 27.401,27.239L27.369,27.303C27.332,27.353 27.325,27.369 27.276,27.409C27.202,27.469 27.108,27.502 27.013,27.502C26.989,27.501 26.965,27.497 26.942,27.495L24.016,26.979C23.788,27.691 23.605,28.415 23.475,29.151C23.346,29.887 23.27,30.63 23.24,31.377L26.166,31.893C26.227,31.909 26.244,31.909 26.3,31.941C26.382,31.988 26.447,32.063 26.482,32.151C26.505,32.211 26.503,32.228 26.51,32.29C26.514,32.41 26.519,32.53 26.525,32.65C26.56,33.246 26.631,33.839 26.745,34.425C26.852,34.973 26.997,35.511 27.172,36.041L27.188,36.11C27.19,36.134 27.193,36.158 27.193,36.181C27.19,36.276 27.155,36.369 27.093,36.442C27.052,36.49 27.036,36.496 26.984,36.532L24.411,38.018C24.694,38.709 25.02,39.382 25.393,40.029C25.767,40.676 26.187,41.294 26.644,41.885L29.217,40.399C29.274,40.373 29.287,40.362 29.35,40.351C29.444,40.333 29.542,40.349 29.625,40.395C29.681,40.425 29.69,40.44 29.736,40.483C29.816,40.572 29.897,40.661 29.979,40.749C30.389,41.183 30.824,41.592 31.288,41.967C31.722,42.318 32.179,42.637 32.654,42.931L32.711,42.973C32.727,42.991 32.745,43.006 32.76,43.025C32.819,43.099 32.852,43.193 32.851,43.288C32.851,43.352 32.842,43.367 32.826,43.428L31.81,46.22C32.471,46.568 33.153,46.873 33.855,47.129C34.557,47.385 35.276,47.588 36.006,47.747L37.022,44.955C37.049,44.898 37.052,44.881 37.092,44.832C37.153,44.759 37.238,44.708 37.332,44.689C37.394,44.676 37.411,44.681 37.473,44.685C37.592,44.702 37.711,44.718 37.83,44.733C38.423,44.802 39.019,44.836 39.616,44.825C40.174,44.814 40.73,44.765 41.282,44.685L41.353,44.681C41.377,44.684 41.4,44.684 41.424,44.689C41.517,44.708 41.602,44.759 41.663,44.832C41.703,44.881 41.707,44.898 41.733,44.955L42.749,47.747C43.48,47.588 44.198,47.385 44.901,47.129C45.603,46.873 46.284,46.568 46.946,46.22L45.929,43.428C45.913,43.367 45.905,43.352 45.904,43.288C45.904,43.193 45.936,43.099 45.996,43.025C46.035,42.975 46.051,42.969 46.102,42.931C46.204,42.868 46.305,42.804 46.406,42.738C46.905,42.41 47.383,42.053 47.833,41.66C48.254,41.294 48.648,40.899 49.019,40.483L49.071,40.434C49.123,40.399 49.135,40.387 49.195,40.366C49.285,40.335 49.385,40.336 49.474,40.369C49.496,40.377 49.517,40.389 49.538,40.399L52.111,41.885C52.569,41.294 52.988,40.676 53.362,40.029C53.736,39.382 54.061,38.709 54.344,38.018L51.771,36.532C51.72,36.496 51.703,36.49 51.662,36.442C51.601,36.369 51.565,36.276 51.563,36.181C51.561,36.118 51.569,36.102 51.584,36.041C51.621,35.927 51.658,35.813 51.693,35.698C51.864,35.126 52,34.545 52.093,33.955C52.18,33.404 52.228,32.848 52.245,32.29L52.253,32.22C52.271,32.159 52.272,32.142 52.305,32.088C52.354,32.006 52.431,31.943 52.52,31.911C52.543,31.903 52.566,31.899 52.589,31.893L55.515,31.377C55.486,30.63 55.41,29.887 55.28,29.151C55.15,28.415 54.968,27.691 54.74,26.979L51.814,27.495C51.751,27.501 51.735,27.506 51.672,27.496C51.578,27.48 51.491,27.431 51.429,27.36C51.387,27.312 51.383,27.296 51.355,27.239C51.31,27.128 51.264,27.017 51.218,26.906C50.981,26.358 50.712,25.825 50.404,25.314C50.116,24.836 49.795,24.379 49.45,23.941L49.411,23.881C49.402,23.86 49.39,23.839 49.383,23.816C49.352,23.726 49.354,23.627 49.387,23.537C49.409,23.478 49.422,23.467 49.458,23.415L51.368,21.139C50.866,20.586 50.33,20.066 49.757,19.585C49.185,19.105 48.579,18.667 47.947,18.269L46.037,20.545C45.993,20.589 45.984,20.604 45.929,20.636C45.847,20.685 45.75,20.703 45.656,20.689C45.593,20.679 45.579,20.669 45.521,20.644C45.415,20.587 45.309,20.531 45.202,20.477C44.669,20.209 44.12,19.974 43.555,19.78C43.027,19.599 42.488,19.455 41.942,19.341L41.874,19.321C41.818,19.293 41.801,19.289 41.753,19.248C41.681,19.185 41.633,19.098 41.617,19.004C41.612,18.981 41.612,18.957 41.61,18.934L41.61,15.963C40.87,15.862 40.125,15.807 39.378,15.807C38.631,15.807 37.885,15.862 37.145,15.963C37.145,16.953 37.145,17.943 37.145,18.934ZM36.932,24.728C37.261,24.619 37.595,24.529 37.935,24.464C38.666,24.324 39.417,24.291 40.157,24.367C41.155,24.468 42.131,24.769 43.013,25.249C44.524,26.07 45.735,27.403 46.406,28.987C46.688,29.654 46.874,30.361 46.956,31.08C47.044,31.851 47.015,32.636 46.869,33.398C46.722,34.164 46.456,34.905 46.084,35.59C45.646,36.396 45.062,37.121 44.369,37.722C43.648,38.346 42.811,38.834 41.912,39.151C40.914,39.503 39.846,39.641 38.792,39.561C37.819,39.487 36.862,39.224 35.988,38.789C35.139,38.367 34.371,37.785 33.732,37.083C33.134,36.424 32.651,35.661 32.314,34.838C32.027,34.136 31.847,33.392 31.78,32.638C31.706,31.803 31.768,30.956 31.967,30.142C32.151,29.388 32.452,28.664 32.855,28.001C33.331,27.217 33.949,26.522 34.669,25.955C35.103,25.614 35.574,25.32 36.072,25.08C36.295,24.972 36.524,24.877 36.756,24.79C36.844,24.759 36.844,24.759 36.932,24.728ZM37.043,25.573C36.374,25.823 35.746,26.169 35.184,26.61C33.996,27.544 33.135,28.87 32.777,30.339C32.606,31.037 32.548,31.762 32.603,32.478C32.654,33.152 32.806,33.817 33.054,34.445C33.346,35.183 33.768,35.869 34.294,36.462C34.855,37.094 35.534,37.621 36.286,38.006C37.084,38.415 37.961,38.662 38.855,38.73C39.794,38.802 40.746,38.679 41.635,38.366C42.436,38.083 43.181,37.648 43.823,37.092C44.441,36.557 44.962,35.911 45.352,35.192C45.684,34.583 45.92,33.922 46.051,33.241C46.181,32.562 46.207,31.862 46.128,31.175C46.055,30.535 45.89,29.905 45.638,29.312C45.041,27.9 43.961,26.712 42.615,25.981C41.83,25.554 40.962,25.286 40.072,25.195C39.413,25.128 38.743,25.157 38.092,25.282C37.789,25.34 37.492,25.42 37.2,25.517C37.121,25.545 37.121,25.545 37.043,25.573Z" fill="white" fill-rule="nonzero"/>
</g>
<g transform="matrix(0.868119,0.306198,-0.306198,0.868119,27.4609,20.508)">
<path d="M47.846,17.184C47.914,17.187 47.932,17.184 47.998,17.202C48.064,17.219 48.078,17.23 48.139,17.261C48.286,17.35 48.431,17.44 48.576,17.531C49.25,17.965 49.896,18.439 50.505,18.961C51.157,19.52 51.763,20.128 52.327,20.775L52.373,20.837C52.406,20.896 52.418,20.91 52.438,20.976C52.475,21.099 52.466,21.234 52.415,21.351C52.387,21.414 52.373,21.426 52.334,21.482L50.474,23.698C50.564,23.819 50.652,23.942 50.738,24.066C50.835,24.207 50.93,24.349 51.023,24.492C51.39,25.07 51.715,25.671 51.998,26.294L52.05,26.412L52.077,26.474L54.926,25.972C54.994,25.965 55.011,25.959 55.079,25.967C55.233,25.984 55.375,26.068 55.465,26.194C55.504,26.25 55.508,26.268 55.534,26.331C55.59,26.493 55.643,26.655 55.696,26.818C55.933,27.584 56.123,28.362 56.254,29.154C56.395,30.001 56.467,30.856 56.484,31.714L56.48,31.791C56.466,31.858 56.467,31.876 56.44,31.939C56.389,32.057 56.296,32.155 56.18,32.212C56.119,32.242 56.101,32.243 56.035,32.26L53.185,32.762C53.177,32.913 53.165,33.063 53.152,33.214C53.135,33.384 53.117,33.554 53.096,33.724C53.005,34.402 52.868,35.071 52.684,35.731L52.648,35.854L52.629,35.919L55.134,37.366C55.191,37.404 55.208,37.411 55.255,37.461C55.362,37.572 55.417,37.728 55.404,37.882C55.398,37.951 55.39,37.967 55.37,38.032C55.308,38.191 55.245,38.35 55.18,38.509C54.869,39.248 54.515,39.966 54.107,40.657C53.67,41.396 53.176,42.098 52.636,42.766L52.584,42.822C52.531,42.865 52.519,42.879 52.458,42.91C52.343,42.968 52.209,42.983 52.084,42.952C52.018,42.936 52.003,42.925 51.942,42.895L49.436,41.449C49.333,41.559 49.227,41.666 49.12,41.773C48.998,41.893 48.875,42.011 48.75,42.128C48.244,42.589 47.709,43.013 47.144,43.4L47.037,43.472L46.98,43.509L47.97,46.228C47.989,46.294 47.997,46.31 48.002,46.378C48.012,46.533 47.954,46.687 47.845,46.797C47.796,46.846 47.779,46.852 47.722,46.889C47.572,46.972 47.422,47.053 47.27,47.133C46.557,47.499 45.824,47.822 45.067,48.089C44.257,48.374 43.428,48.594 42.585,48.759L42.509,48.769C42.441,48.767 42.423,48.771 42.356,48.755C42.231,48.725 42.118,48.651 42.042,48.547C42.002,48.492 41.998,48.474 41.97,48.412L40.981,45.693C40.831,45.711 40.68,45.725 40.53,45.738C40.359,45.752 40.189,45.763 40.018,45.772C39.334,45.8 38.652,45.781 37.97,45.715L37.843,45.701L37.775,45.693L36.785,48.412C36.758,48.474 36.754,48.492 36.713,48.547C36.622,48.672 36.478,48.753 36.323,48.767C36.255,48.773 36.238,48.768 36.17,48.759C36.002,48.726 35.835,48.692 35.668,48.655C34.886,48.478 34.117,48.253 33.366,47.971C32.562,47.67 31.785,47.305 31.033,46.889L30.969,46.848C30.918,46.803 30.902,46.794 30.861,46.739C30.784,46.636 30.745,46.507 30.754,46.378C30.758,46.31 30.767,46.294 30.785,46.228L31.775,43.509C31.649,43.426 31.524,43.341 31.401,43.254C31.261,43.155 31.124,43.054 30.987,42.951C30.445,42.533 29.934,42.08 29.455,41.591L29.366,41.498L29.319,41.449L26.814,42.895C26.752,42.925 26.738,42.936 26.671,42.952C26.521,42.989 26.359,42.959 26.231,42.871C26.175,42.831 26.166,42.816 26.119,42.766C26.012,42.633 25.906,42.499 25.801,42.364C25.316,41.725 24.871,41.058 24.477,40.36C24.055,39.612 23.695,38.833 23.386,38.032L23.363,37.958C23.353,37.891 23.347,37.874 23.35,37.806C23.358,37.677 23.412,37.553 23.501,37.461C23.548,37.411 23.565,37.404 23.621,37.366L26.127,35.919C26.083,35.775 26.043,35.629 26.004,35.483C25.961,35.318 25.921,35.152 25.882,34.985C25.735,34.316 25.636,33.641 25.583,32.958L25.574,32.83L25.57,32.762L22.721,32.26C22.655,32.243 22.637,32.242 22.575,32.212C22.436,32.144 22.331,32.016 22.291,31.867C22.273,31.8 22.276,31.782 22.272,31.715C22.275,31.543 22.28,31.372 22.287,31.201C22.326,30.401 22.414,29.604 22.561,28.816C22.718,27.971 22.943,27.143 23.221,26.331L23.251,26.26C23.286,26.202 23.292,26.185 23.339,26.135C23.428,26.041 23.548,25.981 23.676,25.967C23.744,25.959 23.762,25.965 23.829,25.972L26.679,26.474C26.739,26.336 26.801,26.198 26.865,26.061C26.939,25.907 27.014,25.754 27.092,25.601C27.409,24.995 27.767,24.413 28.165,23.856L28.241,23.753L28.282,23.698L26.422,21.482C26.382,21.426 26.369,21.414 26.341,21.351C26.279,21.21 26.28,21.045 26.345,20.904C26.374,20.842 26.388,20.83 26.429,20.775C26.541,20.646 26.655,20.519 26.77,20.392C27.315,19.804 27.894,19.25 28.513,18.74C29.177,18.195 29.881,17.705 30.616,17.261L30.685,17.226C30.749,17.204 30.765,17.195 30.833,17.187C30.961,17.172 31.092,17.204 31.199,17.275C31.256,17.313 31.266,17.329 31.313,17.377L33.173,19.594C33.308,19.526 33.444,19.461 33.581,19.397C33.736,19.326 33.893,19.257 34.05,19.191C34.684,18.93 35.331,18.714 35.994,18.544L36.119,18.513L36.185,18.497L36.185,15.604C36.19,15.536 36.188,15.518 36.207,15.452C36.25,15.304 36.358,15.178 36.498,15.112C36.56,15.083 36.578,15.083 36.644,15.067C36.813,15.041 36.983,15.016 37.152,14.993C37.948,14.893 38.747,14.84 39.549,14.849C40.408,14.857 41.263,14.934 42.111,15.067L42.186,15.085C42.25,15.109 42.267,15.112 42.325,15.15C42.432,15.22 42.513,15.329 42.549,15.452C42.568,15.518 42.565,15.536 42.57,15.604L42.57,18.497C42.717,18.532 42.863,18.57 43.009,18.609C43.174,18.655 43.338,18.702 43.501,18.753C44.154,18.96 44.789,19.211 45.407,19.507L45.522,19.563L45.583,19.594L47.442,17.377C47.49,17.329 47.5,17.313 47.557,17.275C47.623,17.23 47.692,17.209 47.769,17.191C47.795,17.188 47.82,17.186 47.846,17.184ZM37.272,18.934C37.266,19.006 37.269,19.026 37.247,19.096C37.206,19.228 37.114,19.341 36.993,19.408C36.929,19.444 36.909,19.445 36.839,19.465C36.684,19.498 36.529,19.532 36.375,19.569C35.839,19.701 35.312,19.863 34.798,20.061C34.282,20.26 33.781,20.494 33.294,20.756L33.219,20.789C33.148,20.808 33.131,20.817 33.058,20.82C32.947,20.824 32.837,20.794 32.744,20.735C32.682,20.695 32.672,20.678 32.621,20.626L30.782,18.435C29.596,19.183 28.523,20.098 27.57,21.126L27.556,21.143L29.394,23.334L29.442,23.401C29.475,23.466 29.488,23.481 29.505,23.552C29.532,23.659 29.525,23.773 29.486,23.876C29.46,23.945 29.446,23.959 29.405,24.019C29.307,24.144 29.21,24.27 29.116,24.397C28.791,24.843 28.491,25.305 28.224,25.788C27.956,26.272 27.724,26.773 27.519,27.286L27.482,27.36C27.441,27.42 27.433,27.438 27.379,27.488C27.297,27.562 27.193,27.609 27.084,27.624C27.011,27.633 26.992,27.627 26.92,27.62L24.103,27.123C23.675,28.459 23.441,29.85 23.372,31.249L23.371,31.271L26.188,31.768L26.268,31.788C26.335,31.817 26.354,31.821 26.414,31.864C26.503,31.929 26.571,32.021 26.607,32.125C26.631,32.194 26.629,32.214 26.637,32.286C26.642,32.445 26.649,32.603 26.658,32.762C26.696,33.312 26.764,33.859 26.869,34.4C26.976,34.943 27.119,35.477 27.292,36.002L27.312,36.082C27.318,36.154 27.324,36.173 27.314,36.246C27.299,36.355 27.251,36.458 27.176,36.539C27.126,36.593 27.108,36.601 27.048,36.642L24.57,38.072C25.101,39.37 25.816,40.586 26.663,41.703L26.677,41.72L29.154,40.29L29.228,40.254C29.298,40.233 29.315,40.223 29.388,40.218C29.498,40.211 29.609,40.237 29.704,40.294C29.767,40.332 29.778,40.348 29.831,40.398C29.936,40.517 30.043,40.633 30.152,40.749C30.535,41.146 30.938,41.522 31.368,41.869C31.798,42.216 32.251,42.532 32.721,42.823L32.787,42.872C32.839,42.923 32.855,42.934 32.895,42.996C32.953,43.089 32.982,43.2 32.977,43.31C32.974,43.383 32.965,43.401 32.945,43.471L31.967,46.159C33.208,46.812 34.537,47.284 35.903,47.595L35.925,47.6L36.903,44.912L36.937,44.837C36.977,44.776 36.984,44.757 37.037,44.706C37.116,44.63 37.218,44.579 37.327,44.561C37.4,44.549 37.419,44.555 37.491,44.56C37.648,44.583 37.806,44.603 37.963,44.621C38.512,44.68 39.062,44.708 39.614,44.698C40.167,44.688 40.717,44.639 41.264,44.56L41.346,44.554C41.419,44.56 41.438,44.558 41.508,44.58C41.613,44.614 41.707,44.68 41.773,44.768C41.818,44.826 41.822,44.845 41.852,44.912L42.831,47.6C44.201,47.302 45.523,46.809 46.769,46.169L46.789,46.159L45.81,43.471L45.788,43.392C45.779,43.319 45.773,43.301 45.781,43.228C45.792,43.118 45.838,43.013 45.91,42.93C45.958,42.874 45.976,42.866 46.035,42.823C46.17,42.74 46.303,42.655 46.436,42.567C46.894,42.26 47.334,41.927 47.75,41.565C48.167,41.202 48.557,40.811 48.925,40.398L48.984,40.341C49.044,40.299 49.057,40.285 49.125,40.257C49.227,40.216 49.341,40.206 49.449,40.23C49.52,40.246 49.536,40.258 49.602,40.29L52.079,41.72C52.938,40.611 53.633,39.384 54.177,38.093L54.185,38.072L51.708,36.642L51.64,36.595C51.586,36.546 51.57,36.536 51.529,36.475C51.467,36.383 51.435,36.274 51.436,36.164C51.437,36.09 51.446,36.072 51.463,36.002C51.513,35.851 51.561,35.7 51.606,35.548C51.759,35.018 51.882,34.48 51.968,33.935C52.054,33.389 52.102,32.839 52.119,32.286L52.127,32.204C52.146,32.134 52.147,32.114 52.181,32.049C52.233,31.952 52.314,31.871 52.412,31.821C52.477,31.787 52.497,31.786 52.567,31.768L55.384,31.271C55.329,29.87 55.073,28.483 54.659,27.144L54.653,27.123L51.836,27.62L51.754,27.628C51.681,27.624 51.662,27.627 51.591,27.607C51.485,27.576 51.39,27.513 51.32,27.428C51.274,27.371 51.269,27.352 51.237,27.286C51.178,27.139 51.117,26.993 51.054,26.847C50.831,26.343 50.58,25.852 50.295,25.379C50.01,24.906 49.693,24.453 49.351,24.019L49.305,23.951C49.274,23.885 49.262,23.869 49.246,23.797C49.223,23.69 49.233,23.576 49.276,23.474C49.304,23.406 49.319,23.393 49.361,23.334L51.2,21.143C50.257,20.104 49.169,19.206 47.992,18.447L47.973,18.435L46.134,20.626L46.077,20.685C46.019,20.729 46.006,20.744 45.939,20.774C45.838,20.818 45.724,20.831 45.616,20.811C45.544,20.797 45.528,20.785 45.461,20.756C45.322,20.681 45.181,20.608 45.039,20.536C44.544,20.294 44.036,20.079 43.514,19.9C42.991,19.72 42.457,19.578 41.916,19.465L41.837,19.443C41.771,19.412 41.752,19.408 41.694,19.363C41.607,19.295 41.542,19.201 41.509,19.096C41.487,19.026 41.489,19.006 41.484,18.934L41.484,16.073C40.094,15.884 38.684,15.895 37.294,16.07L37.272,16.073C37.272,17.027 37.272,17.98 37.272,18.934ZM36.892,24.608C37.226,24.498 37.565,24.406 37.911,24.339C38.654,24.197 39.417,24.164 40.17,24.241C41.185,24.344 42.177,24.65 43.073,25.137C44.553,25.942 45.752,27.23 46.447,28.765C46.763,29.463 46.973,30.208 47.07,30.969C47.17,31.751 47.15,32.55 47.011,33.327C46.871,34.108 46.61,34.866 46.24,35.568C45.804,36.393 45.219,37.137 44.522,37.756C43.797,38.399 42.953,38.905 42.043,39.239C41.035,39.608 39.952,39.762 38.881,39.694C37.889,39.631 36.912,39.376 36.017,38.944C35.148,38.525 34.359,37.943 33.702,37.237C33.086,36.575 32.586,35.806 32.233,34.973C31.934,34.265 31.741,33.512 31.663,32.747C31.577,31.899 31.63,31.036 31.822,30.205C32.204,28.553 33.139,27.051 34.446,25.972C35.074,25.454 35.78,25.042 36.535,24.739C36.653,24.693 36.772,24.65 36.892,24.608ZM37.086,25.692C36.43,25.937 35.814,26.276 35.262,26.71C34.118,27.609 33.283,28.879 32.92,30.289C32.737,30.999 32.673,31.738 32.729,32.468C32.779,33.129 32.929,33.782 33.172,34.399C33.458,35.123 33.872,35.796 34.389,36.378C34.94,36.998 35.605,37.515 36.344,37.894C37.101,38.282 37.932,38.521 38.78,38.597C39.702,38.679 40.639,38.57 41.515,38.273C42.28,38.014 42.995,37.614 43.618,37.1C44.237,36.589 44.762,35.968 45.162,35.273C45.501,34.684 45.749,34.043 45.893,33.38C46.032,32.745 46.076,32.09 46.026,31.442C45.978,30.808 45.839,30.181 45.613,29.587C45.068,28.155 44.023,26.934 42.695,26.171C41.937,25.735 41.095,25.451 40.227,25.341C39.276,25.22 38.312,25.308 37.396,25.587C37.292,25.62 37.189,25.655 37.086,25.692Z" fill="white" fill-rule="nonzero"/>
</g>
<g transform="matrix(0.532511,0.336456,-0.336456,0.532511,15.5181,25.051)">
<path d="M36.506,14.842L36.605,14.82C36.834,14.784 37.063,14.752 37.293,14.723C38.043,14.636 38.796,14.59 39.552,14.598C40.366,14.606 41.176,14.675 41.981,14.793L42.15,14.82C42.252,14.843 42.345,14.869 42.436,14.924C42.612,15.03 42.742,15.203 42.795,15.402C42.818,15.49 42.815,15.514 42.821,15.604L42.821,18.301C43.012,18.349 43.011,18.35 43.201,18.402C43.451,18.475 43.451,18.475 43.701,18.553C44.321,18.76 44.928,18.997 45.517,19.282L47.251,17.216C47.313,17.151 47.326,17.131 47.4,17.078C47.568,16.96 47.779,16.91 47.982,16.942C48.087,16.959 48.175,16.998 48.268,17.047C48.467,17.166 48.663,17.289 48.857,17.414C49.488,17.83 50.094,18.279 50.668,18.771C51.286,19.3 51.863,19.874 52.404,20.482L52.516,20.611C52.571,20.683 52.588,20.699 52.629,20.78C52.72,20.964 52.736,21.181 52.673,21.376C52.64,21.477 52.588,21.558 52.526,21.643L50.792,23.709C50.907,23.868 50.906,23.869 51.018,24.03C51.163,24.247 51.163,24.247 51.304,24.467C51.647,25.024 51.959,25.596 52.227,26.193L54.883,25.725C54.987,25.714 55.083,25.708 55.187,25.731C55.388,25.774 55.567,25.896 55.681,26.067C55.732,26.143 55.737,26.166 55.771,26.249C55.846,26.468 55.918,26.688 55.986,26.909C56.202,27.633 56.378,28.367 56.502,29.113C56.635,29.916 56.707,30.726 56.731,31.539L56.734,31.71C56.73,31.8 56.733,31.824 56.712,31.912C56.663,32.112 56.536,32.288 56.362,32.397C56.273,32.454 56.18,32.482 56.078,32.507L53.422,32.975C53.408,33.171 53.407,33.171 53.389,33.367C53.36,33.626 53.36,33.626 53.327,33.885C53.231,34.532 53.103,35.171 52.924,35.8L55.26,37.149C55.347,37.207 55.424,37.265 55.489,37.349C55.615,37.511 55.674,37.72 55.652,37.924C55.642,38.014 55.631,38.036 55.603,38.122C55.52,38.338 55.434,38.552 55.344,38.766C55.021,39.512 54.654,40.238 54.233,40.934C53.842,41.581 53.407,42.198 52.938,42.791L52.831,42.924C52.76,43.001 52.691,43.068 52.598,43.119C52.418,43.219 52.203,43.245 52.005,43.191C51.917,43.167 51.898,43.153 51.817,43.112L49.481,41.764C49.344,41.905 49.343,41.904 49.204,42.043C49.015,42.223 49.015,42.223 48.823,42.4C48.334,42.834 47.825,43.241 47.283,43.608L48.206,46.143C48.235,46.243 48.257,46.337 48.253,46.443C48.245,46.649 48.156,46.846 48.008,46.988C47.942,47.051 47.92,47.06 47.843,47.109C47.641,47.221 47.437,47.329 47.231,47.435C46.504,47.8 45.756,48.119 44.986,48.382C44.271,48.626 43.541,48.82 42.801,48.972L42.633,49.005C42.529,49.019 42.433,49.026 42.329,49.005C42.127,48.966 41.945,48.847 41.828,48.679C41.777,48.604 41.771,48.581 41.735,48.498L40.812,45.963C40.616,45.983 40.617,45.982 40.421,45.999C40.16,46.015 40.161,46.015 39.899,46.028C39.246,46.046 38.594,46.03 37.943,45.963L37.021,48.498C36.984,48.581 36.979,48.604 36.927,48.679C36.81,48.847 36.628,48.966 36.427,49.005C36.323,49.026 36.226,49.019 36.122,49.005C35.895,48.961 35.669,48.913 35.443,48.861C34.708,48.687 33.985,48.472 33.278,48.206C32.515,47.92 31.778,47.578 31.061,47.191L30.912,47.109C30.836,47.06 30.814,47.051 30.748,46.988C30.599,46.846 30.51,46.649 30.503,46.443C30.499,46.337 30.52,46.243 30.55,46.143L31.472,43.608C31.309,43.497 31.311,43.497 31.15,43.383C30.939,43.229 30.94,43.229 30.732,43.071C30.219,42.664 29.73,42.233 29.275,41.764L26.939,43.112C26.858,43.153 26.839,43.167 26.751,43.191C26.553,43.245 26.337,43.219 26.157,43.119C26.065,43.068 25.995,43.001 25.924,42.924C25.779,42.744 25.637,42.561 25.497,42.377C25.046,41.771 24.63,41.141 24.259,40.483C23.859,39.774 23.514,39.037 23.213,38.281L23.152,38.122C23.121,38.022 23.097,37.928 23.099,37.822C23.103,37.617 23.188,37.417 23.334,37.273C23.399,37.208 23.421,37.199 23.496,37.149L25.831,35.8C25.778,35.611 25.779,35.611 25.729,35.421C25.667,35.167 25.667,35.168 25.61,34.913C25.478,34.272 25.381,33.628 25.333,32.975L22.677,32.507C22.589,32.485 22.565,32.484 22.483,32.446C22.296,32.36 22.148,32.201 22.074,32.01C22.036,31.911 22.026,31.815 22.021,31.71C22.026,31.478 22.034,31.247 22.045,31.016C22.093,30.204 22.19,29.397 22.347,28.599C22.493,27.857 22.691,27.128 22.929,26.411L22.984,26.249C23.025,26.153 23.067,26.066 23.136,25.986C23.271,25.831 23.465,25.733 23.67,25.716C23.76,25.708 23.783,25.715 23.873,25.725L26.529,26.193C26.61,26.014 26.61,26.015 26.694,25.837C26.81,25.603 26.81,25.603 26.93,25.371C27.241,24.795 27.58,24.239 27.964,23.709L26.23,21.643C26.176,21.57 26.159,21.553 26.12,21.471C26.033,21.285 26.021,21.069 26.087,20.874C26.122,20.774 26.176,20.694 26.24,20.611C26.392,20.436 26.546,20.264 26.704,20.095C27.223,19.546 27.77,19.027 28.354,18.547C28.983,18.03 29.648,17.562 30.341,17.135L30.487,17.047C30.567,17.005 30.586,16.99 30.674,16.965C30.871,16.907 31.087,16.929 31.268,17.025C31.362,17.075 31.433,17.14 31.505,17.216L33.239,19.282C33.416,19.196 33.416,19.198 33.595,19.115C33.834,19.01 33.833,19.011 34.074,18.91C34.683,18.669 35.3,18.461 35.935,18.301L35.935,15.604C35.941,15.514 35.938,15.49 35.961,15.402C36.004,15.237 36.102,15.088 36.235,14.982C36.307,14.925 36.33,14.919 36.41,14.877C36.442,14.865 36.474,14.854 36.506,14.842ZM37.137,44.353C37.236,44.323 37.323,44.309 37.426,44.304C37.615,44.318 37.803,44.35 37.991,44.372C38.529,44.427 39.068,44.457 39.609,44.447C40.153,44.437 40.693,44.387 41.232,44.311L41.33,44.304C41.417,44.308 41.439,44.305 41.524,44.325C41.717,44.37 41.888,44.488 41.999,44.652C42.048,44.724 42.053,44.746 42.088,44.826L42.991,47.306C44.161,47.028 45.29,46.618 46.371,46.09L46.478,46.037L45.575,43.557L45.547,43.463C45.533,43.377 45.525,43.355 45.527,43.268C45.531,43.104 45.586,42.942 45.684,42.811C45.737,42.741 45.756,42.728 45.82,42.669C45.974,42.559 46.138,42.462 46.297,42.359C46.745,42.055 47.177,41.732 47.585,41.376C47.995,41.018 48.376,40.633 48.74,40.229L48.811,40.16C48.88,40.107 48.895,40.09 48.973,40.051C49.15,39.962 49.357,39.943 49.547,39.996C49.631,40.02 49.649,40.034 49.727,40.073L52.013,41.392C52.73,40.427 53.332,39.387 53.821,38.288L53.868,38.179L51.582,36.859L51.501,36.805C51.435,36.748 51.415,36.736 51.36,36.668C51.257,36.54 51.196,36.381 51.187,36.217C51.182,36.13 51.189,36.108 51.2,36.022C51.247,35.838 51.31,35.659 51.366,35.477C51.513,34.956 51.636,34.431 51.72,33.896C51.805,33.359 51.849,32.818 51.868,32.275L51.878,32.177C51.897,32.092 51.898,32.069 51.932,31.989C52.01,31.808 52.156,31.66 52.336,31.579C52.416,31.543 52.439,31.542 52.524,31.521L55.123,31.063C55.052,29.862 54.845,28.679 54.513,27.523L54.478,27.408L51.879,27.867L51.782,27.878C51.695,27.877 51.672,27.881 51.586,27.863C51.425,27.831 51.276,27.749 51.164,27.629C51.104,27.566 51.095,27.544 51.048,27.471C50.966,27.3 50.899,27.122 50.825,26.947C50.603,26.454 50.36,25.972 50.081,25.509C49.8,25.042 49.486,24.6 49.151,24.171L49.096,24.09C49.056,24.013 49.042,23.995 49.017,23.911C48.96,23.722 48.977,23.515 49.063,23.337C49.101,23.258 49.117,23.243 49.169,23.173L50.866,21.151C50.039,20.277 49.12,19.503 48.123,18.831L48.023,18.766L46.326,20.787L46.259,20.859C46.192,20.914 46.177,20.931 46.1,20.973C45.956,21.052 45.789,21.085 45.626,21.066C45.539,21.055 45.519,21.045 45.435,21.019C45.263,20.94 45.097,20.847 44.928,20.761C44.441,20.525 43.945,20.313 43.433,20.137C42.918,19.96 42.394,19.823 41.862,19.71L41.767,19.684C41.687,19.65 41.664,19.645 41.591,19.597C41.426,19.489 41.306,19.319 41.257,19.128C41.236,19.043 41.239,19.02 41.233,18.934L41.233,16.294C40.038,16.156 38.837,16.154 37.641,16.281L37.522,16.294L37.522,18.934L37.516,19.032C37.5,19.117 37.5,19.14 37.468,19.221C37.409,19.374 37.301,19.507 37.164,19.597C37.091,19.645 37.069,19.65 36.989,19.684C36.806,19.735 36.619,19.769 36.434,19.812C35.909,19.945 35.393,20.101 34.888,20.295C34.38,20.491 33.89,20.723 33.409,20.978L33.32,21.019C33.237,21.045 33.217,21.055 33.13,21.066C32.934,21.089 32.733,21.036 32.573,20.921C32.502,20.87 32.489,20.85 32.429,20.787L30.733,18.766C29.728,19.428 28.807,20.198 27.972,21.064L27.89,21.151L29.586,23.173L29.645,23.252C29.687,23.327 29.702,23.345 29.73,23.428C29.783,23.583 29.786,23.754 29.739,23.911C29.713,23.995 29.699,24.013 29.66,24.09C29.552,24.247 29.431,24.394 29.317,24.546C29.001,24.984 28.705,25.436 28.443,25.909C28.18,26.386 27.954,26.879 27.75,27.383L27.708,27.471C27.661,27.544 27.652,27.566 27.592,27.629C27.456,27.773 27.269,27.862 27.072,27.877C26.985,27.883 26.963,27.876 26.876,27.867L24.277,27.408C23.933,28.561 23.723,29.744 23.64,30.944L23.633,31.063L26.232,31.521L26.327,31.544C26.409,31.575 26.431,31.579 26.506,31.624C26.646,31.71 26.758,31.838 26.823,31.989C26.858,32.069 26.859,32.092 26.878,32.177C26.896,32.366 26.898,32.556 26.908,32.746C26.948,33.285 27.012,33.821 27.115,34.352C27.22,34.886 27.363,35.409 27.531,35.927L27.556,36.022C27.567,36.108 27.574,36.13 27.569,36.217C27.557,36.414 27.471,36.603 27.329,36.741C27.267,36.802 27.246,36.811 27.173,36.859L24.887,38.179C25.365,39.283 25.964,40.324 26.672,41.297L26.743,41.392L29.029,40.073L29.116,40.029C29.198,40 29.218,39.989 29.305,39.976C29.467,39.951 29.636,39.977 29.782,40.051C29.86,40.09 29.876,40.107 29.945,40.16C30.08,40.293 30.204,40.437 30.334,40.576C30.711,40.964 31.104,41.333 31.525,41.674C31.948,42.016 32.395,42.324 32.856,42.612L32.935,42.669C32.999,42.728 33.019,42.741 33.071,42.811C33.189,42.969 33.244,43.169 33.224,43.366C33.215,43.453 33.205,43.473 33.181,43.557L32.278,46.037C33.354,46.576 34.482,46.988 35.649,47.278L35.765,47.306L36.668,44.826L36.707,44.736C36.751,44.661 36.759,44.64 36.817,44.574C36.884,44.497 36.961,44.445 37.047,44.393C37.077,44.38 37.107,44.367 37.137,44.353ZM35.227,25.11C35.562,24.912 35.904,24.731 36.262,24.58C36.994,24.27 37.771,24.072 38.561,23.991C39.634,23.882 40.727,23.99 41.757,24.31C42.684,24.599 43.556,25.059 44.319,25.659C45.075,26.253 45.723,26.983 46.223,27.805C46.663,28.529 46.987,29.323 47.178,30.149C47.345,30.874 47.41,31.623 47.373,32.366C47.332,33.165 47.172,33.956 46.897,34.707C46.297,36.342 45.158,37.758 43.692,38.698C42.868,39.226 41.948,39.601 40.99,39.798C40.061,39.988 39.098,40.011 38.16,39.868C37.444,39.759 36.744,39.551 36.084,39.252C34.499,38.535 33.17,37.298 32.34,35.77C31.965,35.081 31.693,34.336 31.535,33.567C31.345,32.638 31.321,31.675 31.465,30.737C31.623,29.702 31.988,28.7 32.533,27.805C32.966,27.092 33.51,26.449 34.14,25.903C34.383,25.693 34.639,25.501 34.902,25.318C35.064,25.212 35.064,25.212 35.227,25.11ZM35.791,26.634C35.58,26.781 35.374,26.934 35.179,27.103C34.674,27.541 34.237,28.058 33.889,28.629C33.454,29.346 33.161,30.148 33.034,30.978C32.919,31.73 32.938,32.503 33.091,33.248C33.217,33.864 33.435,34.46 33.735,35.012C34.376,36.192 35.388,37.157 36.597,37.74C37.166,38.014 37.776,38.203 38.4,38.299C39.152,38.414 39.925,38.395 40.671,38.242C41.439,38.085 42.175,37.785 42.835,37.362C44.01,36.608 44.925,35.472 45.406,34.16C45.626,33.559 45.754,32.925 45.787,32.286C45.817,31.689 45.765,31.088 45.631,30.506C45.478,29.845 45.219,29.209 44.866,28.629C44.465,27.97 43.945,27.384 43.338,26.907C42.727,26.426 42.028,26.057 41.285,25.826C40.459,25.569 39.582,25.483 38.721,25.571C38.089,25.635 37.467,25.794 36.881,26.042C36.594,26.163 36.32,26.308 36.052,26.467C35.921,26.549 35.921,26.548 35.791,26.634Z" fill="white" fill-rule="nonzero"/>
</g>
</svg>

</svg>
